<mxfile host="app.diagrams.net" modified="2020-08-25T09:56:58.927Z" agent="5.0 (Windows NT 10.0; Win64; x64) AppleWebKit/537.36 (KHTML, like Gecko) Chrome/84.0.4147.135 Safari/537.36" etag="m8Ly2GQlQf60QQlKu6hm" version="13.6.5" type="github" pages="2">
  <diagram id="5SL7sjia7mTwZKQkzwAf" name="RS1-1">
    <mxGraphModel dx="1730" dy="913" grid="1" gridSize="10" guides="1" tooltips="1" connect="1" arrows="1" fold="1" page="1" pageScale="1" pageWidth="2339" pageHeight="3300" math="0" shadow="0">
      <root>
        <mxCell id="0" />
        <mxCell id="1" parent="0" />
        <mxCell id="a2iPK0oup8Hox52Vh_2h-1" value="&lt;font face=&quot;Times New Roman&quot;&gt;RS1-1&lt;/font&gt;" style="text;html=1;strokeColor=none;fillColor=none;align=center;verticalAlign=middle;whiteSpace=wrap;rounded=0;fontFamily=標楷體;fontSize=30;" vertex="1" parent="1">
          <mxGeometry x="40" y="80" width="80" height="20" as="geometry" />
        </mxCell>
        <mxCell id="a2iPK0oup8Hox52Vh_2h-2" value="109水利用地" style="text;html=1;strokeColor=none;fillColor=none;align=center;verticalAlign=middle;whiteSpace=wrap;rounded=0;fontFamily=標楷體;fontSize=30;" vertex="1" parent="1">
          <mxGeometry x="40" y="40" width="170" height="20" as="geometry" />
        </mxCell>
        <mxCell id="a2iPK0oup8Hox52Vh_2h-3" value="" style="verticalLabelPosition=bottom;html=1;verticalAlign=top;align=center;strokeColor=#666666;shape=mxgraph.azure.user;fontFamily=標楷體;fontSize=30;fillColor=#f5f5f5;fontColor=#333333;" vertex="1" parent="1">
          <mxGeometry x="60" y="265" width="47.5" height="50" as="geometry" />
        </mxCell>
        <mxCell id="a2iPK0oup8Hox52Vh_2h-4" value="軌跡定位" style="ellipse;whiteSpace=wrap;html=1;fillColor=#fff2cc;fontFamily=標楷體;fontSize=30;strokeColor=#d6b656;" vertex="1" parent="1">
          <mxGeometry x="200" y="250" width="170" height="80" as="geometry" />
        </mxCell>
        <mxCell id="a2iPK0oup8Hox52Vh_2h-5" value="開始定位" style="ellipse;whiteSpace=wrap;html=1;fillColor=#fff2cc;fontFamily=標楷體;fontSize=30;strokeColor=#d6b656;" vertex="1" parent="1">
          <mxGeometry x="560" y="200" width="170" height="80" as="geometry" />
        </mxCell>
        <mxCell id="a2iPK0oup8Hox52Vh_2h-6" value="結束定位" style="ellipse;whiteSpace=wrap;html=1;fillColor=#fff2cc;fontFamily=標楷體;fontSize=30;strokeColor=#d6b656;" vertex="1" parent="1">
          <mxGeometry x="560" y="315" width="170" height="80" as="geometry" />
        </mxCell>
        <mxCell id="a2iPK0oup8Hox52Vh_2h-7" value="" style="endArrow=none;html=1;fontFamily=標楷體;fontSize=30;entryX=0;entryY=0.5;entryDx=0;entryDy=0;" edge="1" parent="1" source="a2iPK0oup8Hox52Vh_2h-3" target="a2iPK0oup8Hox52Vh_2h-4">
          <mxGeometry width="50" height="50" relative="1" as="geometry">
            <mxPoint x="107.5" y="335" as="sourcePoint" />
            <mxPoint x="180" y="300" as="targetPoint" />
          </mxGeometry>
        </mxCell>
        <mxCell id="a2iPK0oup8Hox52Vh_2h-8" value="" style="endArrow=classic;html=1;fontFamily=標楷體;fontSize=30;exitX=1;exitY=0.5;exitDx=0;exitDy=0;entryX=0;entryY=0.5;entryDx=0;entryDy=0;dashed=1;strokeWidth=3;" edge="1" parent="1" source="a2iPK0oup8Hox52Vh_2h-4" target="a2iPK0oup8Hox52Vh_2h-5">
          <mxGeometry width="50" height="50" relative="1" as="geometry">
            <mxPoint x="390" y="190" as="sourcePoint" />
            <mxPoint x="440" y="140" as="targetPoint" />
          </mxGeometry>
        </mxCell>
        <mxCell id="a2iPK0oup8Hox52Vh_2h-9" value="" style="endArrow=classic;html=1;fontFamily=標楷體;fontSize=30;exitX=1;exitY=0.5;exitDx=0;exitDy=0;entryX=0;entryY=0.5;entryDx=0;entryDy=0;dashed=1;strokeWidth=3;" edge="1" parent="1" source="a2iPK0oup8Hox52Vh_2h-4" target="a2iPK0oup8Hox52Vh_2h-6">
          <mxGeometry width="50" height="50" relative="1" as="geometry">
            <mxPoint x="379.9999999999977" y="300" as="sourcePoint" />
            <mxPoint x="530" y="249.9999999999999" as="targetPoint" />
          </mxGeometry>
        </mxCell>
        <mxCell id="a2iPK0oup8Hox52Vh_2h-10" value="&amp;lt;&amp;lt;include&amp;gt;&amp;gt;" style="text;html=1;strokeColor=none;fillColor=none;align=center;verticalAlign=middle;whiteSpace=wrap;rounded=0;fontFamily=標楷體;fontSize=18;" vertex="1" parent="1">
          <mxGeometry x="390" y="230" width="100" height="20" as="geometry" />
        </mxCell>
        <mxCell id="a2iPK0oup8Hox52Vh_2h-11" value="&amp;lt;&amp;lt;include&amp;gt;&amp;gt;" style="text;html=1;strokeColor=none;fillColor=none;align=center;verticalAlign=middle;whiteSpace=wrap;rounded=0;fontFamily=標楷體;fontSize=18;" vertex="1" parent="1">
          <mxGeometry x="390" y="345" width="100" height="20" as="geometry" />
        </mxCell>
      </root>
    </mxGraphModel>
  </diagram>
  <diagram id="06ORrumkcgsPQ75S__CR" name="RS1-2">
    <mxGraphModel dx="5190" dy="2740" grid="1" gridSize="10" guides="1" tooltips="1" connect="1" arrows="1" fold="1" page="1" pageScale="1" pageWidth="2339" pageHeight="3300" math="0" shadow="0">
      <root>
        <mxCell id="frGBTgBHzqRuNVTYLtoF-0" />
        <mxCell id="frGBTgBHzqRuNVTYLtoF-1" parent="frGBTgBHzqRuNVTYLtoF-0" />
        <mxCell id="frGBTgBHzqRuNVTYLtoF-2" value="&lt;font face=&quot;Times New Roman&quot;&gt;RS1-2&lt;/font&gt;" style="text;html=1;strokeColor=none;fillColor=none;align=center;verticalAlign=middle;whiteSpace=wrap;rounded=0;fontFamily=標楷體;fontSize=30;" vertex="1" parent="frGBTgBHzqRuNVTYLtoF-1">
          <mxGeometry x="40" y="80" width="80" height="20" as="geometry" />
        </mxCell>
        <mxCell id="frGBTgBHzqRuNVTYLtoF-3" value="109水利用地" style="text;html=1;strokeColor=none;fillColor=none;align=center;verticalAlign=middle;whiteSpace=wrap;rounded=0;fontFamily=標楷體;fontSize=30;" vertex="1" parent="frGBTgBHzqRuNVTYLtoF-1">
          <mxGeometry x="40" y="40" width="170" height="20" as="geometry" />
        </mxCell>
        <mxCell id="frGBTgBHzqRuNVTYLtoF-4" value="" style="verticalLabelPosition=bottom;html=1;verticalAlign=top;align=center;strokeColor=#666666;shape=mxgraph.azure.user;fontFamily=標楷體;fontSize=30;fillColor=#f5f5f5;fontColor=#333333;" vertex="1" parent="frGBTgBHzqRuNVTYLtoF-1">
          <mxGeometry x="60" y="265" width="47.5" height="50" as="geometry" />
        </mxCell>
        <mxCell id="frGBTgBHzqRuNVTYLtoF-5" value="軌跡定位" style="ellipse;whiteSpace=wrap;html=1;fillColor=#fff2cc;fontFamily=標楷體;fontSize=30;strokeColor=#d6b656;" vertex="1" parent="frGBTgBHzqRuNVTYLtoF-1">
          <mxGeometry x="200" y="250" width="170" height="80" as="geometry" />
        </mxCell>
        <mxCell id="frGBTgBHzqRuNVTYLtoF-6" value="開始定位" style="ellipse;whiteSpace=wrap;html=1;fillColor=#fff2cc;fontFamily=標楷體;fontSize=30;strokeColor=#d6b656;" vertex="1" parent="frGBTgBHzqRuNVTYLtoF-1">
          <mxGeometry x="560" y="200" width="170" height="80" as="geometry" />
        </mxCell>
        <mxCell id="frGBTgBHzqRuNVTYLtoF-7" value="結束定位" style="ellipse;whiteSpace=wrap;html=1;fillColor=#fff2cc;fontFamily=標楷體;fontSize=30;strokeColor=#d6b656;" vertex="1" parent="frGBTgBHzqRuNVTYLtoF-1">
          <mxGeometry x="560" y="315" width="170" height="80" as="geometry" />
        </mxCell>
        <mxCell id="frGBTgBHzqRuNVTYLtoF-8" value="" style="endArrow=none;html=1;fontFamily=標楷體;fontSize=30;entryX=0;entryY=0.5;entryDx=0;entryDy=0;" edge="1" parent="frGBTgBHzqRuNVTYLtoF-1" source="frGBTgBHzqRuNVTYLtoF-4" target="frGBTgBHzqRuNVTYLtoF-5">
          <mxGeometry width="50" height="50" relative="1" as="geometry">
            <mxPoint x="107.5" y="335" as="sourcePoint" />
            <mxPoint x="180" y="300" as="targetPoint" />
          </mxGeometry>
        </mxCell>
        <mxCell id="frGBTgBHzqRuNVTYLtoF-9" value="" style="endArrow=classic;html=1;fontFamily=標楷體;fontSize=30;exitX=1;exitY=0.5;exitDx=0;exitDy=0;entryX=0;entryY=0.5;entryDx=0;entryDy=0;dashed=1;strokeWidth=3;" edge="1" parent="frGBTgBHzqRuNVTYLtoF-1" source="frGBTgBHzqRuNVTYLtoF-5" target="frGBTgBHzqRuNVTYLtoF-6">
          <mxGeometry width="50" height="50" relative="1" as="geometry">
            <mxPoint x="390" y="190" as="sourcePoint" />
            <mxPoint x="440" y="140" as="targetPoint" />
          </mxGeometry>
        </mxCell>
        <mxCell id="frGBTgBHzqRuNVTYLtoF-10" value="" style="endArrow=classic;html=1;fontFamily=標楷體;fontSize=30;exitX=1;exitY=0.5;exitDx=0;exitDy=0;entryX=0;entryY=0.5;entryDx=0;entryDy=0;dashed=1;strokeWidth=3;" edge="1" parent="frGBTgBHzqRuNVTYLtoF-1" source="frGBTgBHzqRuNVTYLtoF-5" target="frGBTgBHzqRuNVTYLtoF-7">
          <mxGeometry width="50" height="50" relative="1" as="geometry">
            <mxPoint x="379.9999999999977" y="300" as="sourcePoint" />
            <mxPoint x="530" y="249.9999999999999" as="targetPoint" />
          </mxGeometry>
        </mxCell>
        <mxCell id="frGBTgBHzqRuNVTYLtoF-11" value="&amp;lt;&amp;lt;include&amp;gt;&amp;gt;" style="text;html=1;strokeColor=none;fillColor=none;align=center;verticalAlign=middle;whiteSpace=wrap;rounded=0;fontFamily=標楷體;fontSize=18;" vertex="1" parent="frGBTgBHzqRuNVTYLtoF-1">
          <mxGeometry x="390" y="230" width="100" height="20" as="geometry" />
        </mxCell>
        <mxCell id="frGBTgBHzqRuNVTYLtoF-12" value="&amp;lt;&amp;lt;include&amp;gt;&amp;gt;" style="text;html=1;strokeColor=none;fillColor=none;align=center;verticalAlign=middle;whiteSpace=wrap;rounded=0;fontFamily=標楷體;fontSize=18;" vertex="1" parent="frGBTgBHzqRuNVTYLtoF-1">
          <mxGeometry x="390" y="345" width="100" height="20" as="geometry" />
        </mxCell>
      </root>
    </mxGraphModel>
  </diagram>
</mxfile>
